<svg id="Layer_2" data-name="Layer 2" xmlns="http://www.w3.org/2000/svg" xmlns:xlink="http://www.w3.org/1999/xlink" viewBox="0 0 1000 346">
    <defs>
        <style>
        .cls-1 {
            fill: #fff;
        }
        
        .cls-2 {
            fill: url(#linear-gradient);
        }
        
        .cls-3 {
            fill: url(#linear-gradient-2);
        }
        </style>
        <linearGradient id="linear-gradient" x1="153.52" y1="684.01" x2="450" y2="684.01" gradientUnits="userSpaceOnUse">
            <stop offset="0" stop-color="#7f0078" />
            <stop offset="1" stop-color="#e9008c" />
        </linearGradient>
        <linearGradient id="linear-gradient-2" x1="150" y1="556.24" x2="441.52" y2="556.24" xlink:href="#linear-gradient" />
    </defs>
    <title>symbol_logo_original1</title>
    <path class="cls-1" d="M1025,725a25,25,0,0,1-25-25V550a25,25,0,0,1,50,0V700A25,25,0,0,1,1025,725Z" transform="translate(-150 -475)" />
    <path class="cls-1" d="M1125,725a25,25,0,0,1-25-25V550a25,25,0,0,1,50,0V700A25,25,0,0,1,1125,725Z" transform="translate(-150 -475)" />
    <path class="cls-1" d="M575,725a25,25,0,0,1-25-25V550a25,25,0,0,1,50,0V700A25,25,0,0,1,575,725Z" transform="translate(-150 -475)" />
    <path class="cls-1" d="M875,821a25,25,0,0,1-11.66-47.13C890.75,759.46,900,747.13,900,725V550a25,25,0,0,1,50,0V725c0,53-33.86,77.61-63.36,93.13A24.9,24.9,0,0,1,875,821Z" transform="translate(-150 -475)" />
    <path class="cls-1" d="M825,727a25,25,0,0,1-25-25V625a50,50,0,0,0-100,0v75a25,25,0,0,1-50,0V550a25,25,0,0,1,47.8-10.27A100,100,0,0,1,850,625v77A25,25,0,0,1,825,727Z" transform="translate(-150 -475)" />
    <path class="cls-2" d="M446.57,593c-29.74,22-51,28.09-78.32,38.78-9.06,3.55-14.69,12.87-14.49,22.6a13.65,13.65,0,0,0,.17,2l6.42,37c1.93,11.17-9.91,19.69-20,14.41l-33.57-17.47a13.92,13.92,0,0,0-12.85,0l-33.56,17.47c-10.14,5.28-22-3.24-20-14.41l6.4-37c0-.28.09-0.57,0.13-0.88a19.08,19.08,0,0,0-10.28-18.89l-3.84-2c-32.69-11.29-69,11.71-79.17,22.75,0,0,.16.77,0.24,1.15A150,150,0,0,0,446.57,593Z" transform="translate(-150 -475)" />
    <path class="cls-3" d="M260.75,589.34c5.25-1,8.39-3.44,10.39-7.48l16.79-33.67a13.86,13.86,0,0,1,24.76,0l16.79,33.67a18.41,18.41,0,0,0,7.38,8.83C352,600,375.52,601,393.33,598.5c30.5-5.48,46.69-21.64,48.19-23.3-0.16-.45-0.3-0.9-0.46-1.34A150,150,0,0,0,150,625q0,6.31.53,12.49l0.38-.32C179.67,611.5,255.5,590.35,260.75,589.34Z" transform="translate(-150 -475)" />
</svg>