<?xml version="1.0" encoding="iso-8859-1"?>
<!-- Generator: Adobe Illustrator 18.0.0, SVG Export Plug-In . SVG Version: 6.00 Build 0)  -->
<!DOCTYPE svg PUBLIC "-//W3C//DTD SVG 1.1//EN" "http://www.w3.org/Graphics/SVG/1.1/DTD/svg11.dtd">
<svg xmlns="http://www.w3.org/2000/svg" xmlns:xlink="http://www.w3.org/1999/xlink" version="1.1" id="Capa_1" x="0px" y="0px" viewBox="0 0 297 297" style="enable-background:new 0 0 297 297;" xml:space="preserve" width="512px" height="512px">
<g>
	<g>
		<path d="M206.772,241.471l32.833-0.01c2.617,0,4.761-2.143,4.761-4.76l0.005-20.324c0-2.617,2.143-4.76,4.761-4.761l20.257-0.007    c2.618-0.001,4.76-2.144,4.761-4.762l0.003-32.955c0.001-2.616-2.141-4.758-4.757-4.758c0,0-0.001,0-0.002,0l-20.256,0.004    c-2.618,0-4.759-2.141-4.759-4.758l0.007-20.324c0-2.617-2.141-4.759-4.757-4.759c-0.001,0-0.001,0-0.001,0l-32.837,0.005    c-2.618,0.001-4.761,2.143-4.761,4.761l-0.006,20.321c0,2.618-2.143,4.761-4.761,4.762l-20.257,0.006    c-2.617,0.001-4.759,2.144-4.76,4.761l-0.003,32.958c-0.001,2.617,2.14,4.759,4.757,4.759h0.001l20.259-0.004h0.001    c2.617,0,4.757,2.142,4.757,4.759l-0.004,20.326C202.013,239.328,204.155,241.471,206.772,241.471z" fill="#FFFFFF"/>
	</g>
	<g>
		<path d="M239.981,254.789l-33.209,0.008c-4.825,0-9.365-1.883-12.783-5.301c-3.421-3.42-5.304-7.963-5.302-12.787l0.003-11.754    L177,224.957c-4.827,0-9.367-1.885-12.785-5.303c-3.419-3.42-5.301-7.961-5.299-12.784l0.003-32.961    c0.004-9.969,8.115-18.08,18.084-18.084l11.696-0.003l0.003-11.759c0-9.971,8.112-18.084,18.086-18.088l32.838-0.005h0.002    c9.972,0,18.083,8.114,18.083,18.091l-0.004,11.749l4.857-0.001l31.662-31.804c2.521-2.532,3.411-6.261,2.308-9.658    c-1.105-3.396-4.018-5.891-7.545-6.456l-90.316-14.504l-41.7-81.427c-1.628-3.18-4.9-5.18-8.473-5.18c-3.572,0-6.845,2-8.473,5.18    l-41.7,81.427L8.011,107.892c-3.528,0.565-6.44,3.06-7.545,6.456c-1.104,3.397-0.213,7.126,2.308,9.658l64.541,64.828    l-14.115,90.396c-0.551,3.529,0.92,7.07,3.81,9.172c2.891,2.098,6.714,2.402,9.899,0.789l81.592-41.359l81.592,41.359    c1.36,0.688,2.834,1.027,4.303,1.027c1.975,0,3.94-0.613,5.597-1.816c2.89-2.102,4.36-5.643,3.81-9.172L239.981,254.789z" fill="#FFFFFF"/>
	</g>
</g>
<g>
</g>
<g>
</g>
<g>
</g>
<g>
</g>
<g>
</g>
<g>
</g>
<g>
</g>
<g>
</g>
<g>
</g>
<g>
</g>
<g>
</g>
<g>
</g>
<g>
</g>
<g>
</g>
<g>
</g>
</svg>
