<?xml version="1.0" encoding="iso-8859-1"?>
<!-- Generator: Adobe Illustrator 18.0.0, SVG Export Plug-In . SVG Version: 6.00 Build 0)  -->
<!DOCTYPE svg PUBLIC "-//W3C//DTD SVG 1.1//EN" "http://www.w3.org/Graphics/SVG/1.1/DTD/svg11.dtd">
<svg xmlns="http://www.w3.org/2000/svg" xmlns:xlink="http://www.w3.org/1999/xlink" version="1.1" id="Capa_1" x="0px" y="0px" viewBox="0 0 297 297" style="enable-background:new 0 0 297 297;" xml:space="preserve" width="512px" height="512px">
<g>
	<path d="M228.364,109.903c-13.637-23.071-29.307-39.913-45.876-49.7c15.969-10.899,26.476-29.243,26.476-49.999   C208.963,4.568,204.395,0,198.76,0H98.239c-5.635,0-10.204,4.568-10.204,10.204c0,20.756,10.507,39.1,26.477,49.999   c-16.569,9.787-32.239,26.629-45.876,49.7c-18.749,31.716-30.862,71.542-30.862,101.459c0,29.294,11.775,52.491,34.055,67.083   C90.625,290.757,116.42,297,148.5,297s57.875-6.243,76.672-18.555c22.279-14.592,34.056-37.789,34.056-67.083   C259.227,181.445,247.113,141.619,228.364,109.903z M109.758,20.407h77.482c-4.521,17.177-20.176,29.879-38.741,29.879   S114.279,37.584,109.758,20.407z M213.989,261.374c-15.199,9.956-37.846,15.219-65.489,15.219s-50.29-5.263-65.489-15.219   c-16.708-10.942-24.83-27.302-24.83-50.012c0-26.527,11-62.276,28.022-91.075c18.63-31.518,41.336-49.593,62.297-49.593   s43.667,18.075,62.297,49.593c17.022,28.799,28.022,64.548,28.022,91.075C238.819,234.072,230.697,250.432,213.989,261.374z" fill="#FFFFFF"/>
	<path d="M176.05,141.75c-10.855,0-20.655,4.629-27.549,12.025c-6.894-7.396-16.694-12.025-27.551-12.025   c-20.821,0-37.761,17.02-37.761,37.94c0,34.257,54.016,66.728,60.175,70.316c1.587,0.926,3.362,1.388,5.138,1.388   c1.775,0,3.551-0.462,5.139-1.388c6.158-3.591,60.168-36.061,60.168-70.316C213.809,158.77,196.871,141.75,176.05,141.75z    M148.515,229.225c-17.352-11.16-44.917-33.465-44.917-49.534c0-9.668,7.784-17.533,17.353-17.533   c9.565,0,17.348,7.865,17.348,17.533c0,5.635,4.569,10.204,10.204,10.204c5.635,0,10.204-4.569,10.204-10.204   c0-9.668,7.78-17.533,17.344-17.533c9.567,0,17.351,7.865,17.351,17.533C193.401,195.319,167.706,216.992,148.515,229.225z" fill="#FFFFFF"/>
</g>
<g>
</g>
<g>
</g>
<g>
</g>
<g>
</g>
<g>
</g>
<g>
</g>
<g>
</g>
<g>
</g>
<g>
</g>
<g>
</g>
<g>
</g>
<g>
</g>
<g>
</g>
<g>
</g>
<g>
</g>
</svg>
