<?xml version="1.0" encoding="iso-8859-1"?>
<!-- Generator: Adobe Illustrator 16.0.0, SVG Export Plug-In . SVG Version: 6.00 Build 0)  -->
<!DOCTYPE svg PUBLIC "-//W3C//DTD SVG 1.1//EN" "http://www.w3.org/Graphics/SVG/1.1/DTD/svg11.dtd">
<svg xmlns="http://www.w3.org/2000/svg" xmlns:xlink="http://www.w3.org/1999/xlink" version="1.1" id="Capa_1" x="0px" y="0px" width="512px" height="512px" viewBox="0 0 441 441" style="enable-background:new 0 0 441 441;" xml:space="preserve">
<g>
	<g>
		<path d="M441,164.725c0-73.988-60.2-134.178-134.159-134.178c-30.397,0-58.954,9.819-82.633,28.402l-3.708,2.912l-3.711-2.929    c-23.644-18.566-52.229-28.386-82.596-28.386C60.206,30.547,0,90.736,0,164.725c0,92.224,64.808,140.954,121.26,179.186    c10.86-11.293,34.985-36.975,58.969-66.594c7.429,9.043,20.059,24.26,30.079,35.563c-19.916,24.146-38.979,44.841-50.731,57.229    c12.729,9.184,24.073,18.352,32.672,27.906c7.107,7.916,17.263,12.438,27.867,12.438c0.042,0,0.081,0,0.119,0    c10.648-0.037,20.807-4.604,27.908-12.569c8.541-9.599,20.043-18.854,33.001-28.166c-2.848-3.044-6.104-6.555-9.704-10.504    c-4.873-5.338-10.836-11.68-17.145-18.397l-0.092-0.106c-27.252-26.526-74.543-85.502-77.932-90.144    c-32.479-44.551-42.54-77.015-31.653-102.172c5.391-12.46,15.379-21.751,29.679-27.603c12.133-4.966,27.228-7.378,46.171-7.378    c15.628,0,28.302,2.383,38.751,7.282c11.936,5.599,20.752,14.593,25.492,26.01c8.018,19.316,4.195,43.959-11.68,75.339    c-4.893,9.668-11.041,20.171-18.344,31.371c-13.344-15.757-29.174-35.659-30.568-37.408    c23.122-38.853,18.535-51.166,18.297-51.739c-0.843-2.037-7.389-5.065-21.948-5.065c-25.006,0-32.999,5.464-33.822,7.376    c-0.227,0.525-6.149,14.069,26.625,57.008c16.659,21.813,62.382,73.086,74.285,85.752c6.493,6.907,12.588,13.402,17.703,19.007    c5.77,6.32,10.639,11.51,14.191,15.248C376.189,305.241,441,256.292,441,164.725z" fill="#FFFFFF"/>
	</g>
</g>
<g>
</g>
<g>
</g>
<g>
</g>
<g>
</g>
<g>
</g>
<g>
</g>
<g>
</g>
<g>
</g>
<g>
</g>
<g>
</g>
<g>
</g>
<g>
</g>
<g>
</g>
<g>
</g>
<g>
</g>
</svg>
