<svg xmlns="http://www.w3.org/2000/svg" width="29.344262284830165" height="29.344262284830165"><rect id="backgroundrect" width="100%" height="100%" x="0" y="0" fill="none" stroke="none" class=""/><defs><style>.cls-1{fill:#efefef;}</style></defs><title>Family-Music-Browser-Icons-MASTER-LMS-06-jason-export</title><g class="currentLayer"><title>Layer 1</title><path class="cls-1" d="M14.640321393976292,0.1884250574062624 a14.480043863879983,14.320092259281685 0 0 0 -14.836110516270473,14.67222567549353 a14.499825344568343,14.33965522684901 0 0 0 14.836110516270473,14.67222567549353 a14.559169786633424,14.398344129550983 0 0 0 14.836110516270473,-14.67222567549353 A14.509716084912524,14.349436710632673 0 0 0 14.640321393976292,0.1884250574062624 zM21.039630396660954,19.26231843554785 a2.1462906546871285,2.1225819810547306 0 0 1 -0.3758481330788531,0.8118631540439759 a2.2056350967522107,2.1812708837567047 0 0 1 -0.7121333047809825,0.596670510803405 a2.9672221032540946,2.9344451350987057 0 0 1 -0.9000573713204088,0.3032259972935337 a3.7090276290676183,3.6680564188733826 0 0 1 -1.3847036481852442,0.06847038648563666 a1.9781480688360622,1.9562967567324707 0 0 1 -0.9396203326971317,-0.43038528648114416 a1.8495684443617195,1.8291374675448604 0 0 1 -0.6527888627159016,-1.1737780540394824 a1.810005482984998,1.7900115324102113 0 0 1 0.5538814592740989,-1.4770040513330154 a2.274870279161472,2.249741270242341 0 0 1 0.8407129292553265,-0.49885567296677996 a9.366531105938758,9.263065143128248 0 0 1 1.4242666095619654,-0.33257044864452084 l0.5044277575531968,-0.08803335405296148 a0.9000573713204088,0.8901150243132747 0 0 0 0.5637721996182786,-0.2641000621588837 a0.8209314485669665,0.8118631540439759 0 0 0 0.1582518455068855,-0.5868890270197422 V10.93827573565119 c0,-0.4010408351301568 -0.19781480688360653,-0.5086371567504419 -0.6132259013391818,-0.4401667702648069 L12.800643689958735,11.730575922127837 a0.5044277575531968,0.49885567296677996 0 0 0 -0.48464627686483647,0.596670510803405 v7.6686832863912855 a3.7881535518210603,3.746308289142681 0 0 1 -0.08901666309762306,0.8705520567459503 a2.1462906546871285,2.1225819810547306 0 0 1 -0.3758481330788531,0.8118631540439759 a2.2056350967522107,2.1812708837567047 0 0 1 -0.7121333047809825,0.596670510803405 a2.9672221032540946,2.9344451350987057 0 0 1 -0.9000573713204088,0.3032259972935337 a3.7090276290676183,3.6680564188733826 0 0 1 -1.3847036481852442,0.06847038648563666 A1.9781480688360622,1.9562967567324707 0 0 1 7.91461795993367,22.196763570646556 A1.8297869636733586,1.8095744999775358 0 0 1 7.2618290972177695,21.03276700039074 a1.7902240022966376,1.7704485648428863 0 0 1 0.5340999785857379,-1.4770040513330154 A2.274870279161472,2.249741270242341 0 0 1 8.646532745403025,19.0666887598746 a9.366531105938758,9.263065143128248 0 0 1 1.4242666095619654,-0.33257044864452084 l0.5044277575531968,-0.08803335405296148 a0.9000573713204088,0.8901150243132747 0 0 0 0.5637721996182786,-0.2641000621588837 a0.8308221889111465,0.8216446378276377 0 0 0 0.16814258585106587,-0.5771075432360796 v-8.803335405296117 a1.4539388305945065,1.437878116198366 0 0 1 0,-0.23475561080789667 a0.7121333047809825,0.7042668324236905 0 0 1 0.25715924894868825,-0.45972973783213117 a1.1176536588923756,1.105307667553846 0 0 1 0.48464627686483647,-0.19562967567324718 h0 l7.704886728116465,-1.4280966324147037 L20.45607671635431,6.5463895167867925 a0.5637721996182786,0.5575445756687547 0 0 1 0.6527888627159016,0.626014962154392 V18.362421927450914 A3.8079350325094214,3.7658712567100068 0 0 1 21.039630396660954,19.26231843554785 z" id="svg_1"/></g></svg>