<?xml version="1.0" encoding="iso-8859-1"?>
<!-- Generator: Adobe Illustrator 16.0.0, SVG Export Plug-In . SVG Version: 6.00 Build 0)  -->
<!DOCTYPE svg PUBLIC "-//W3C//DTD SVG 1.1//EN" "http://www.w3.org/Graphics/SVG/1.1/DTD/svg11.dtd">
<svg version="1.1" id="Capa_1" xmlns="http://www.w3.org/2000/svg" xmlns:xlink="http://www.w3.org/1999/xlink" x="0px" y="0px"
	 width="439.303px" height="439.303px" viewBox="0 0 439.303 439.303" style="enable-background:new 0 0 439.303 439.303;"
	 xml:space="preserve">
<g>
	<g>
		<path d="M305.418,47.903c-30.316,0-58.812,9.797-82.402,28.331l-3.366,2.72l-3.365-2.72
			c-23.592-18.534-52.086-28.331-82.404-28.331C60.061,47.903,0,107.965,0,181.783c0,97.528,72.643,146.325,131.02,185.528
			c12.166,8.171,23.976,16.109,34.57,24.088c-6.327-15.7-17.092-23.382-17.732-23.825c-1.703-1.185-2.331-3.116-2.329-5.119h-0.003
			l-0.074-95.178c0.008-2.526,1.553-4.8,3.902-5.735l39.701-15.83l9.297-7.834c2.453-2.068,6.075-1.922,8.354,0.338l12.963,12.857
			l12.923-12.854c2.278-2.265,5.905-2.416,8.36-0.342l9.296,7.834l39.699,15.828c2.359,0.938,3.902,3.223,3.902,5.76l-0.029,95.174
			c-0.002,2.009-0.975,3.892-2.607,5.054c-0.615,0.442-11.131,8.231-17.381,23.78c10.562-7.946,22.33-15.856,34.449-23.996
			c58.377-39.203,131.021-88,131.021-185.528C439.299,107.964,379.238,47.903,305.418,47.903z M219.764,234.807v0.006
			c-0.02,0-0.042,0-0.064,0c-0.007,0-0.021,0-0.035,0h-0.012c-0.011,0-0.014,0-0.014,0c-0.021,0-0.032,0-0.043,0
			c-0.021,0-0.043,0-0.064,0v-0.006c-24.406,0.372-39.244-20.996-39.621-56.219c-0.249-24.437,14.901-38.407,39.584-39.064v-0.01
			c0.034,0,0.064,0.004,0.105,0.004v-0.004c0.013,0,0.033,0,0.052,0.004c0.015-0.004,0.034-0.004,0.048-0.004v0.004
			c0.042,0,0.072-0.004,0.108-0.004v0.01c24.682,0.657,39.834,14.628,39.583,39.064
			C259.012,213.811,244.171,235.179,219.764,234.807z"/>
	</g>
</g>
<g>
</g>
<g>
</g>
<g>
</g>
<g>
</g>
<g>
</g>
<g>
</g>
<g>
</g>
<g>
</g>
<g>
</g>
<g>
</g>
<g>
</g>
<g>
</g>
<g>
</g>
<g>
</g>
<g>
</g>
</svg>
