<?xml version="1.0" encoding="iso-8859-1"?>
<!-- Generator: Adobe Illustrator 19.0.0, SVG Export Plug-In . SVG Version: 6.00 Build 0)  -->
<svg xmlns="http://www.w3.org/2000/svg" xmlns:xlink="http://www.w3.org/1999/xlink" version="1.1" id="Capa_1" x="0px" y="0px" viewBox="0 0 489.7 489.7" style="enable-background:new 0 0 489.7 489.7;" xml:space="preserve" width="512px" height="512px">
<g>
	<path d="M446.8,288.698l11.3-13.4c5.5-6.5,8.5-14.8,8.5-23.3v-56.5v-15.2c0-3.2-1.4-6.3-3.9-8.3c-13.7-11.3-28.5-18.8-31.5-20.2   c-0.3-0.1-0.5-0.4-0.5-0.8c0-0.9,0-5.2,0-9.3c1.7-2.9,2.8-5.9,3.2-8.6c1.2-0.1,2.7-1.8,4.4-7.7c2.1-7.6,0.1-9.1-1.8-9.1   c0.2-0.6,0.3-1.3,0.5-1.9c3.5-20.9-6.8-21.7-6.8-21.7s-1.7-3.3-6.2-5.8c-3-1.8-7.2-3.2-12.8-2.7c-1.8,0.1-3.5,0.4-5.1,1l0,0   c-2,0.7-3.9,1.7-5.6,2.9c-2.1,1.3-4,2.9-5.7,4.8c-2.7,2.8-5.2,6.4-6.2,10.9c-0.9,3.4-0.7,6.9,0,10.6l0,0c0.1,0.6,0.3,1.3,0.5,1.9   c-1.9,0-3.8,1.6-1.7,9.1c1.7,5.9,3.2,7.6,4.4,7.7c0.4,2.7,1.5,5.8,3.2,8.6v9.3c0,0.3-0.2,0.6-0.5,0.8c-3,1.5-17.8,8.9-31.5,20.2   c-2.5,2-3.9,5.1-3.9,8.3v15.2v56.7c0,8.4,2.9,16.6,8.3,23.1l11.5,13.5l9.9,127.3h-33.1v-38.9h-83.8l11-141.5l12.5-14.9   c6.1-7.3,9.4-16.4,9.4-25.9v-62.8v-16.9c0-3.6-1.6-7-4.4-9.2c-15.3-12.5-31.7-20.8-35-22.5c-0.3-0.2-0.5-0.5-0.6-0.9   c0-1,0-5.8,0-10.3c1.9-3.2,3.1-6.5,3.5-9.6c1.3-0.1,3-1.9,4.9-8.5c2.4-8.4,0.2-10.1-2-10.1c0.2-0.7,0.4-1.4,0.5-2.2   c3.9-23.3-7.6-24.1-7.6-24.1s-1.9-3.7-6.9-6.4c-3.4-2-8-3.5-14.2-3c-2,0.1-3.9,0.5-5.6,1.1l0,0c-2.3,0.8-4.3,1.9-6.2,3.2   c-2.3,1.5-4.5,3.2-6.4,5.3c-3,3.1-5.7,7.1-6.9,12.1c-1,3.7-0.8,7.6,0.1,11.8l0,0c0.1,0.7,0.3,1.4,0.5,2.2   c-2.1,0.1-4.3,1.8-1.9,10.1c1.9,6.6,3.6,8.4,4.9,8.5c0.5,3,1.7,6.4,3.5,9.6v10.3c0,0.4-0.2,0.7-0.6,0.9c-3.3,1.6-19.8,9.9-35,22.5   c-2.8,2.3-4.4,5.7-4.4,9.2v16.9v63c0,9.4,3.3,18.4,9.2,25.7l12.8,15l11,141.5h-83.8v37.3h-32.9l9.7-125.6l11.3-13.4   c5.5-6.5,8.5-14.8,8.5-23.3v-56.5v-15.2c0-3.2-1.4-6.3-3.9-8.3c-13.7-11.3-28.5-18.8-31.5-20.2c-0.3-0.1-0.5-0.4-0.5-0.8   c0-0.9,0-5.2,0-9.3c1.7-2.9,2.8-5.9,3.2-8.6c1.2-0.1,2.7-1.8,4.4-7.7c2.1-7.6,0.1-9.1-1.8-9.1c0.2-0.6,0.3-1.3,0.5-1.9   c3.5-20.9-6.8-21.7-6.8-21.7s-1.7-3.3-6.2-5.8c-3-1.8-7.2-3.2-12.8-2.7c-1.8,0.1-3.5,0.4-5.1,1l0,0c-2,0.7-3.9,1.7-5.6,2.9   c-2.1,1.3-4,2.9-5.7,4.8c-2.7,2.8-5.2,6.4-6.2,10.9c-0.9,3.4-0.7,6.9,0,10.6l0,0c0.1,0.6,0.3,1.3,0.5,1.9c-1.9,0-3.8,1.6-1.7,9.1   c1.7,5.9,3.2,7.6,4.4,7.7c0.4,2.7,1.5,5.8,3.2,8.6v9.3c0,0.3-0.2,0.6-0.5,0.8c-3,1.5-17.8,8.9-31.5,20.2c-2.5,2-3.9,5.1-3.9,8.3   v15.2v56.7c0,8.4,2.9,16.6,8.3,23.1l11.2,13.1l9.8,125.6H0v67.1h30.7v-36.4h134.2v-37.3h159.9v38.9H459v34.8h30.7v-65.5H437   L446.8,288.698z M412.7,160.198L412.7,160.198L412.7,160.198c2.1,0,14.1,0.8,2.9,16.1l5.5,46.6l-8.4,9.5l-8.5-9.5l5.5-46.6   C398.7,160.898,410.6,160.198,412.7,160.198z M244.8,92.698L244.8,92.698L244.8,92.698c2.3,0,15.6,0.8,3.2,17.9l6.1,51.8l-9.3,10.5   l-9.5-10.5l6.1-51.8C229.2,93.498,242.5,92.698,244.8,92.698z M76.9,160.198L76.9,160.198L76.9,160.198c2.1,0,14.1,0.8,2.9,16.1   l5.5,46.6l-8.4,9.5l-8.5-9.5l5.5-46.6C62.8,160.898,74.8,160.198,76.9,160.198z" fill="#FFFFFF"/>
</g>
<g>
</g>
<g>
</g>
<g>
</g>
<g>
</g>
<g>
</g>
<g>
</g>
<g>
</g>
<g>
</g>
<g>
</g>
<g>
</g>
<g>
</g>
<g>
</g>
<g>
</g>
<g>
</g>
<g>
</g>
</svg>
