<svg xmlns="http://www.w3.org/2000/svg" version="1.0" width="290.76922607421875" height="290.76922607421875" preserveAspectRatio="xMidYMid meet"><rect id="backgroundrect" width="100%" height="100%" x="0" y="0" fill="none" stroke="none" class=""/>
<metadata>
Created by potrace 1.13, written by Peter Selinger 2001-2015
</metadata>

<g class="currentLayer"><title>Layer 1</title>





<path fill="#ffffff" fill-opacity="1" stroke="none" stroke-opacity="1" stroke-width="1" stroke-dasharray="none" stroke-linejoin="miter" stroke-linecap="butt" stroke-dashoffset="" fill-rule="nonzero" opacity="1" marker-start="" marker-mid="" marker-end="" d="M0,144.5 C0,64.6657458563536 65.11325966850829,0 145.5,0 C225.8867403314917,0 291,64.6657458563536 291,144.5 C291,224.3342541436464 225.8867403314917,289 145.5,289 C65.11325966850829,289 0,224.3342541436464 0,144.5 Z" id="svg_7"/><path d="M-461.0972852143111,-54.246905655790215 c0.4411367255347476,45.359995103374196 1.3234101766042414,56.26384008014685 4.4113672553474705,43.61537990709058 c11.910691589438175,-49.28537929501233 52.93640706416964,-88.97537501046476 102.34372032406135,-99.0069123890956 c13.67523849157716,-2.6169227944254345 1.76454690213899,-3.4892303925672468 -44.113672553474714,-3.9253841916381518 l-63.08255175146884,-0.4361537990709066 l0.4411367255347476,59.75307047271407 z" id="svg_2" class=""/><path d="M-461.0972852143111,-54.246905655790215 c0.4411367255347476,45.359995103374196 1.3234101766042414,56.26384008014685 4.4113672553474705,43.61537990709058 c11.910691589438175,-49.28537929501233 52.93640706416964,-88.97537501046476 102.34372032406135,-99.0069123890956 c13.67523849157716,-2.6169227944254345 1.76454690213899,-3.4892303925672468 -44.113672553474714,-3.9253841916381518 l-63.08255175146884,-0.4361537990709066 l0.4411367255347476,59.75307047271407 z" class="" id="svg_8"/><path d="M-294.3476029621766,-107.02151534336979 c46.31935618114844,12.21230637398536 80.7280207728587,47.54076409872873 93.07984908783165,95.51768199652834 c2.2056836276737353,8.28692218234721 3.5290938042779767,-8.28692218234721 3.970230529812724,-44.923841304303274 l0.4411367255347476,-57.57230147735956 l-60.435731398260344,0.4361537990709066 l-60.876868123795106,0 l23.82138317887635,6.542306986063585 z" class="" id="svg_9"/><path d="M-340.66695914332496,-44.215368277159314 c-11.469554863903422,25.29692034611253 -11.910691589438175,25.733074145183434 -32.20298096403654,28.34999693960887 c-42.79026237687048,5.6699993879217745 -43.23139910240521,6.106153186992681 -18.968879197994124,29.658458336821585 l21.17456282566786,20.935382355403476 l-5.293640706416965,27.041535542396158 c-3.08795707874323,14.829229168410793 -4.852503980882219,27.477689341467066 -3.970230529812724,28.34999693960887 c0.8822734510694948,0.8723075981418119 13.23410176604241,-4.361537990709057 27.35047698315432,-11.776152574914454 l26.027066806550085,-13.956921570268987 l23.82138317887635,13.520767771198079 c13.23410176604241,6.9784607851344935 25.585930081015338,13.08461397212717 26.909340257619572,13.08461397212717 c1.76454690213899,0 0.4411367255347476,-12.648460173056264 -2.6468203532084833,-28.34999693960887 l-5.293640706416965,-27.91384314053797 l21.615699551202606,-20.935382355403476 c24.26251990441109,-23.552305149828904 23.82138317887635,-23.98845894889981 -18.968879197994124,-29.658458336821585 c-20.29228937459836,-2.6169227944254345 -20.73342610013312,-3.0530765934963404 -32.20298096403654,-28.34999693960887 c-6.175914157486458,-14.39307536933989 -12.35182831497292,-26.16922794425434 -13.23410176604241,-26.16922794425434 c-1.3234101766042414,0 -7.499324334090702,11.776152574914454 -14.116375217111907,26.16922794425434 z" class="" id="svg_10"/><path d="M-461.0972852143111,87.50307904225414 l-0.4411367255347476,60.189224271784994 l58.67118449612138,-0.4361537990709066 c36.614348219384006,-0.4361537990709066 53.37754378970441,-1.744615196283624 44.9959460045442,-3.9253841916381518 c-48.52503980882218,-12.21230637398536 -84.2571145771367,-46.232302701516 -96.60894289210961,-92.02845160396112 l-6.617050883021205,-23.552305149828904 l0,59.75307047271407 z" class="" id="svg_11"/><path d="M-203.03230077648405,51.302313719368925 c-5.734777431951711,36.63691912195608 -48.08390308328743,79.37999143090482 -89.55075528355366,90.28383640767748 c-20.29228937459836,5.233845588850869 -18.527742472459387,5.6699993879217745 37.49662167045351,5.6699993879217745 l58.23004777058662,0.4361537990709066 l0,-56.69999387921774 c0,-31.40307353310521 -0.8822734510694948,-56.69999387921774 -1.76454690213899,-56.69999387921774 c-0.8822734510694948,0 -2.6468203532084833,7.414614584205399 -4.4113672553474705,17.00999816376532 z" class="" id="svg_12"/><path d="M-294.3476029621766,-107.02151534336979 c46.31935618114844,12.21230637398536 80.7280207728587,47.54076409872873 93.07984908783165,95.51768199652834 c2.2056836276737353,8.28692218234721 3.5290938042779767,-8.28692218234721 3.970230529812724,-44.923841304303274 l0.4411367255347476,-57.57230147735956 l-60.435731398260344,0.4361537990709066 l-60.876868123795106,0 l23.82138317887635,6.542306986063585 z" id="svg_3" class=""/><path d="M128.76584517367922,66.34595894900677 c-15.171046878873375,32.53184989269077 -15.754548681906973,33.092743856357856 -42.59563162145218,36.45810763836035 c-56.59967489425838,7.2916215276720715 -57.183176697291955,7.852515491339155 -25.090577530444428,38.14078952936159 l28.008086545612386,26.922910256019954 l-7.0020216364030965,34.775425747359115 c-4.084512621235141,19.070394764680795 -6.4185198333695075,35.33631971102619 -5.251516227302322,36.45810763836035 c1.1670036060671838,1.1217879273341653 17.50505409100774,-5.608939636670823 36.17711178808266,-15.144137019011222 l34.4266063789819,-17.948606837346638 l31.509097363813947,17.387712873679558 c17.50505409100774,8.974303418673319 33.8431045759483,16.82681891001247 35.59360998504907,16.82681891001247 c2.334007212134368,0 0.5835018030335933,-16.265924946345386 -3.5010108182015496,-36.45810763836035 l-7.0020216364030965,-35.897213674693276 l28.591588348645978,-26.922910256019954 c32.09259916684753,-30.28827403802244 31.509097363813947,-30.849168001689527 -25.090577530444428,-38.14078952936159 c-26.841082939545196,-3.365363782002494 -27.424584742578805,-3.926257745669578 -42.59563162145218,-36.45810763836035 c-8.169025242470278,-18.50950080101372 -16.33805048494056,-33.65363782002494 -17.50505409100774,-33.65363782002494 c-1.750505409100775,0 -9.919530651571055,15.144137019011222 -18.672057697074926,33.65363782002494 z" id="svg_4" class=""/><path d="M-461.0972852143111,87.50307904225414 l-0.4411367255347476,60.189224271784994 l58.67118449612138,-0.4361537990709066 c36.614348219384006,-0.4361537990709066 53.37754378970441,-1.744615196283624 44.9959460045442,-3.9253841916381518 c-48.52503980882218,-12.21230637398536 -84.2571145771367,-46.232302701516 -96.60894289210961,-92.02845160396112 l-6.617050883021205,-23.552305149828904 l0,59.75307047271407 z" id="svg_5" class=""/><path d="M-203.03230077648405,51.302313719368925 c-5.734777431951711,36.63691912195608 -48.08390308328743,79.37999143090482 -89.55075528355366,90.28383640767748 c-20.29228937459836,5.233845588850869 -18.527742472459387,5.6699993879217745 37.49662167045351,5.6699993879217745 l58.23004777058662,0.4361537990709066 l0,-56.69999387921774 c0,-31.40307353310521 -0.8822734510694948,-56.69999387921774 -1.76454690213899,-56.69999387921774 c-0.8822734510694948,0 -2.6468203532084833,7.414614584205399 -4.4113672553474705,17.00999816376532 z" id="svg_6" class=""/></g></svg>