<svg xmlns="http://www.w3.org/2000/svg" width="248" height="248" version="1.1"><rect id="backgroundrect" width="100%" height="100%" x="0" y="0" fill="none" stroke="none" class=""/>













































































































































<g class="currentLayer"><title>Layer 1</title><path fill="#ffffff" d="M-268.59503173828125,-71.07437896728516 L-146.50503173828125,-71.07437896728516 C-172.85503173828124,-69.70437896728515 -198.79503173828124,-60.34437896728515 -219.51503173828127,-43.92437896728516 C-243.31503173828125,-25.34437896728516 -260.27503173828126,1.8456210327148455 -266.10503173828124,31.505621032714842 C-267.3750317382812,37.80562103271484 -268.0650317382813,44.21562103271485 -268.59503173828125,50.62562103271485 L-268.59503173828125,-71.07437896728516 z" id="svg_1" class=""/><path fill="#58c0d4" d="M460.10651000976566,-28.099172592163086 L472.31651000976564,-28.099172592163086 C503.47651000976566,-26.449172592163087 533.9265100097656,-13.299172592163085 556.0165100097656,8.830827407836914 C578.8565100097657,31.110827407836915 592.4965100097656,62.19082740783692 594.0165100097656,94.02082740783692 L594.0165100097656,106.17082740783692 C592.3665100097656,137.3808274078369 579.1965100097657,167.8708274078369 557.0165100097656,189.9708274078369 C534.7465100097656,212.77082740783692 503.6865100097656,226.3708274078369 471.8965100097656,227.9008274078369 L459.74651000976564,227.9008274078369 C432.8465100097656,226.4008274078369 406.3965100097656,216.5908274078369 385.50651000976563,199.48082740783693 C362.69651000976563,181.08082740783692 346.42651000976565,154.68082740783692 340.63651000976563,125.92082740783692 C339.25651000976563,119.28082740783691 338.5165100097656,112.53082740783691 338.0165100097656,105.77082740783692 L338.0165100097656,93.60082740783692 C338.5465100097656,87.19082740783692 339.23651000976565,80.78082740783691 340.50651000976563,74.48082740783691 C346.3365100097656,44.820827407836916 363.2965100097656,17.63082740783691 387.0965100097656,-0.9491725921630874 C407.81651000976564,-17.369172592163086 433.75651000976563,-26.729172592163085 460.10651000976566,-28.099172592163086 z" id="svg_2" class=""/><path fill="#ffffff" d="M-224.37767333984374,-115.70247650146484 L-102.67767333984375,-115.70247650146484 L-102.67767333984375,6.417523498535161 C-104.19767333984376,-25.412476501464837 -117.83767333984375,-56.49247650146484 -140.67767333984375,-78.77247650146484 C-162.76767333984375,-100.90247650146485 -193.21767333984374,-114.05247650146484 -224.37767333984374,-115.70247650146484 z" id="svg_3" class=""/><path fill="#ffffff" d="M110.71619506835935,1.7426444625854498 C135.34619506835938,-0.9673555374145519 160.79619506835937,3.8226444625854494 182.5861950683594,15.672644462585449 C208.78619506835938,29.732644462585448 229.57619506835937,53.58264446258545 239.78619506835938,81.51264446258546 C249.63619506835937,108.19264446258545 249.84619506835938,138.30264446258545 240.3361950683594,165.10264446258546 C230.5861950683594,192.98264446258545 210.31619506835938,216.95264446258545 184.57619506835937,231.40264446258544 C160.71619506835938,244.96264446258544 132.23619506835936,249.93264446258544 105.16619506835937,245.68264446258544 C77.71619506835935,241.53264446258544 51.966195068359355,227.55264446258545 33.32619506835937,207.02264446258545 C13.906195068359352,185.91264446258546 2.3061950683593864,157.81264446258544 1.2961950683593955,129.13264446258546 C0.05619506835938638,101.38264446258545 8.586195068359359,73.32264446258544 25.186195068359382,51.04264446258545 C45.216195068359355,23.68264446258545 76.95619506835936,5.2226444625854525 110.71619506835935,1.7426444625854498 z" id="svg_4" class=""/><path fill="#000000" d=" M 121.41 44.57 C 131.60 42.34 142.78 45.43 150.27 52.71 C 156.90 58.92 160.52 68.03 160.27 77.08 C 160.15 93.36 160.42 109.66 160.15 125.94 C 160.29 128.99 155.02 129.03 155.12 125.97 C 154.82 112.33 155.09 98.66 155.00 85.00 C 154.90 79.13 155.57 73.05 153.60 67.40 C 150.80 58.97 143.57 52.17 134.95 49.99 C 126.82 47.79 117.71 49.78 111.23 55.15 C 105.05 60.13 101.33 67.94 101.33 75.87 C 101.29 93.59 101.30 111.32 101.32 129.04 C 101.15 133.25 105.09 135.99 108.56 137.42 C 119.61 141.93 131.84 139.12 143.25 141.83 C 149.00 143.11 155.03 145.59 158.33 150.75 C 160.64 154.01 160.25 158.19 160.28 161.97 C 160.12 168.95 160.47 175.94 160.10 182.91 C 159.36 194.82 151.22 205.81 140.13 210.14 C 128.41 215.01 114.01 211.98 105.23 202.82 C 99.58 197.05 96.22 189.10 96.11 181.02 C 95.98 174.34 96.10 167.66 96.03 160.99 C 96.24 159.45 95.66 157.28 97.32 156.38 C 98.60 155.35 101.05 156.24 101.14 157.97 C 101.72 166.51 100.87 175.11 101.54 183.65 C 102.80 195.60 113.04 205.78 124.98 207.02 C 136.25 208.56 147.92 201.93 152.54 191.57 C 155.98 184.54 154.81 176.53 155.00 168.98 C 154.85 164.41 155.39 159.79 154.69 155.26 C 152.91 150.45 147.57 148.37 142.98 147.17 C 130.83 144.22 117.69 147.28 106.00 142.06 C 100.74 139.90 95.80 135.11 96.06 129.03 C 96.09 110.99 95.98 92.94 96.12 74.90 C 96.30 60.55 107.36 47.37 121.41 44.57 Z" id="svg_5" class="" fill-opacity="1"/><path fill="#000000" d=" M 120.38 57.12 C 122.26 56.57 123.02 59.70 121.14 60.14 C 119.28 60.68 118.51 57.54 120.38 57.12 Z" id="svg_6" class="" fill-opacity="1"/><path fill="#000000" d=" M 127.19 57.42 C 128.64 56.29 130.38 58.78 128.81 59.75 C 127.36 60.88 125.62 58.39 127.19 57.42 Z" id="svg_7" class="" stroke-width="1" fill-opacity="1"/><path fill="#000000" d=" M 134.17 57.55 C 135.50 56.02 137.72 58.39 136.29 59.71 C 134.97 61.23 132.76 58.85 134.17 57.55 Z" id="svg_8" class="" fill-opacity="1"/><path fill="#242424" d=" M 116.28 61.32 C 117.60 59.82 119.84 62.18 118.42 63.49 C 117.09 64.95 114.83 62.63 116.28 61.32 Z" id="svg_9" class="" fill-opacity="1"/><path fill="#000000" d=" M 124.18 61.08 C 125.91 60.49 126.71 63.39 124.94 63.80 C 123.21 64.38 122.41 61.48 124.18 61.08 Z" id="svg_10" class="" fill-opacity="1"/><path fill="#000000" d=" M 131.37 60.88 C 133.24 60.31 134.02 63.45 132.14 63.88 C 130.25 64.48 129.52 61.33 131.37 60.88 Z" id="svg_11" class="" fill-opacity="1"/><path fill="#000000" d=" M 138.12 61.30 C 139.52 60.12 141.36 62.54 139.82 63.56 C 138.41 64.74 136.57 62.32 138.12 61.30 Z" id="svg_12" class="" fill-opacity="1"/><path fill="#000000" d=" M 112.41 65.12 C 113.42 63.58 115.86 65.40 114.69 66.82 C 113.68 68.36 111.24 66.54 112.41 65.12 Z" id="svg_13" class="" fill-opacity="1"/><path fill="#000000" d=" M 119.55 65.12 C 120.57 63.56 122.98 65.39 121.83 66.81 C 120.82 68.37 118.39 66.54 119.55 65.12 Z" id="svg_14" class="" fill-opacity="1"/><path fill="#000000" d=" M 127.22 64.94 C 128.90 64.54 129.43 65.12 128.80 66.69 C 127.11 67.09 126.59 66.50 127.22 64.94 Z" id="svg_15" class="" fill-opacity="1"/><path fill="#000000" d=" M 134.16 65.13 C 135.16 63.57 137.59 65.37 136.46 66.80 C 135.45 68.36 133.03 66.57 134.16 65.13 Z" id="svg_16" class="" fill-opacity="1"/><path fill="#000000" d=" M 141.31 65.12 C 142.33 63.58 144.76 65.41 143.59 66.82 C 142.56 68.36 140.14 66.53 141.31 65.12 Z" id="svg_17" class="" fill-opacity="1"/><path fill="#000000" d=" M 109.08 68.59 C 110.42 67.09 112.65 69.43 111.21 70.75 C 109.89 72.25 107.65 69.90 109.08 68.59 Z" id="svg_18" class="" fill-opacity="1"/><path fill="#000000" d=" M 115.85 71.17 C 116.15 69.87 115.83 67.70 117.85 68.07 C 120.34 69.49 117.85 71.58 115.85 71.17 Z" id="svg_19" class="" fill-opacity="1"/><path fill="#000000" d=" M 124.19 68.18 C 126.08 67.57 126.94 70.68 124.98 71.10 C 123.12 71.72 122.26 68.58 124.19 68.18 Z" id="svg_20" class="" fill-opacity="1"/><path fill="#000000" d=" M 130.92 68.48 C 132.36 67.32 134.13 69.79 132.59 70.79 C 131.15 71.94 129.39 69.48 130.92 68.48 Z" id="svg_21" class="" fill-opacity="1"/><path fill="#000000" d=" M 138.12 68.49 C 139.53 67.32 141.35 69.75 139.82 70.77 C 138.40 71.94 136.58 69.51 138.12 68.49 Z" id="svg_22" class="" fill-opacity="1"/><path fill="#000000" d=" M 145.11 68.59 C 146.43 67.07 148.68 69.40 147.25 70.74 C 145.94 72.26 143.69 69.91 145.11 68.59 Z" id="svg_23" class="" fill-opacity="1"/><path fill="#000000" d=" M 112.40 72.13 C 113.38 70.57 115.85 72.35 114.71 73.78 C 113.72 75.34 111.25 73.57 112.40 72.13 Z" id="svg_24" class="" fill-opacity="1"/><path fill="#000000" d=" M 119.94 72.11 C 121.58 71.61 122.13 72.17 121.61 73.78 C 119.97 74.27 119.41 73.72 119.94 72.11 Z" id="svg_25" class="" fill-opacity="1"/><path fill="#000000" d=" M 127.17 72.12 C 128.79 71.60 129.35 72.15 128.83 73.78 C 127.20 74.30 126.65 73.74 127.17 72.12 Z" id="svg_26" class="" fill-opacity="1"/><path fill="#000000" d=" M 134.38 72.14 C 136.01 71.59 136.57 72.12 136.07 73.75 C 134.44 74.30 133.88 73.77 134.38 72.14 Z" id="svg_27" class="" fill-opacity="1"/><path fill="#000000" d="M141.32,72.09 C142.36,70.56 144.76,72.43 143.57,73.82 C142.52,75.34 140.12,73.48 141.32,72.09 z" id="svg_28" class="" fill-opacity="1"/><path fill="#000000" d=" M 109.08 75.27 C 110.40 73.77 112.63 76.12 111.23 77.44 C 109.91 78.93 107.65 76.60 109.08 75.27 Z" id="svg_29" class="" fill-opacity="1"/><path fill="#000000" d=" M 116.32 75.44 C 117.52 74.08 119.72 76.12 118.37 77.38 C 117.18 78.73 114.97 76.70 116.32 75.44 Z" id="svg_30" class="" fill-opacity="1"/><path fill="#000000" d=" M 124.23 75.03 C 125.97 74.52 126.67 77.44 124.89 77.78 C 123.14 78.30 122.44 75.38 124.23 75.03 Z" id="svg_31" class="" fill-opacity="1"/><path fill="#000000" d=" M 131.39 74.85 C 133.27 74.28 134.01 77.44 132.13 77.85 C 130.23 78.43 129.52 75.29 131.39 74.85 Z" id="svg_32" class="" fill-opacity="1"/><path fill="#000000" d=" M 138.11 75.27 C 139.51 74.08 141.36 76.49 139.84 77.53 C 138.44 78.71 136.58 76.31 138.11 75.27 Z" id="svg_33" class="" fill-opacity="1"/><path fill="#000000" d=" M 145.12 75.26 C 146.45 73.77 148.66 76.14 147.26 77.45 C 145.92 78.93 143.68 76.58 145.12 75.26 Z" id="svg_34" class="" fill-opacity="1"/><path fill="#000000" d=" M 112.40 78.22 C 113.38 76.66 115.86 78.43 114.71 79.87 C 113.73 81.43 111.25 79.66 112.40 78.22 Z" id="svg_35" class="" fill-opacity="1"/><path fill="#000000" d=" M 119.94 78.25 C 121.58 77.71 122.13 78.25 121.61 79.87 C 119.97 80.40 119.41 79.86 119.94 78.25 Z" id="svg_36" class="" fill-opacity="1"/><path fill="#000000" d=" M 127.18 78.22 C 128.81 77.72 129.35 78.28 128.82 79.90 C 127.19 80.40 126.64 79.84 127.18 78.22 Z" id="svg_37" class="" fill-opacity="1"/><path fill="#000000" d=" M 134.40 78.21 C 136.05 77.74 136.60 78.31 136.05 79.91 C 134.40 80.38 133.85 79.81 134.40 78.21 Z" id="svg_38" class="" fill-opacity="1"/><path fill="#000000" d=" M 141.29 78.21 C 142.29 76.66 144.74 78.46 143.59 79.88 C 142.58 81.43 140.14 79.64 141.29 78.21 Z" id="svg_39" class="" fill-opacity="1"/><path fill="#000000" d=" M 109.35 81.09 C 110.98 80.57 111.53 81.12 110.99 82.74 C 109.35 83.26 108.80 82.71 109.35 81.09 Z" id="svg_40" class="" fill-opacity="1"/><path fill="#000000" d=" M 116.21 81.07 C 117.26 79.56 119.66 81.41 118.46 82.80 C 117.41 84.31 115.01 82.46 116.21 81.07 Z" id="svg_41" class="" fill-opacity="1"/><path fill="#000000" d=" M 123.43 81.10 C 124.43 79.55 126.87 81.34 125.72 82.77 C 124.72 84.32 122.27 82.52 123.43 81.10 Z" id="svg_42" class="" fill-opacity="1"/><path fill="#000000" d=" M 130.94 81.07 C 132.58 80.59 133.14 81.15 132.61 82.76 C 130.96 83.24 130.41 82.68 130.94 81.07 Z" id="svg_43" class="" fill-opacity="1"/><path fill="#000000" d=" M 138.17 81.04 C 139.81 80.59 140.34 81.17 139.76 82.78 C 138.11 83.23 137.58 82.65 138.17 81.04 Z" id="svg_44" class="" fill-opacity="1"/><path fill="#000000" d=" M 145.32 81.13 C 146.93 80.52 147.50 81.04 147.05 82.69 C 145.44 83.30 144.87 82.78 145.32 81.13 Z" id="svg_45" class="" fill-opacity="1"/><path fill="#000000" d=" M 113.17 83.19 C 115.05 82.56 115.94 85.67 113.98 86.09 C 112.12 86.73 111.23 83.60 113.17 83.19 Z" id="svg_46" class="" fill-opacity="1"/><path fill="#000000" d=" M 119.96 83.47 C 121.41 82.34 123.13 84.84 121.57 85.81 C 120.11 86.94 118.40 84.44 119.96 83.47 Z" id="svg_47" class="" fill-opacity="1"/><path fill="#000000" d=" M 127.15 83.50 C 128.57 82.33 130.37 84.77 128.84 85.79 C 127.42 86.95 125.62 84.51 127.15 83.50 Z" id="svg_48" class="" fill-opacity="1"/><path fill="#000000" d=" M 134.38 83.50 C 135.79 82.32 137.60 84.74 136.09 85.78 C 134.68 86.96 132.86 84.53 134.38 83.50 Z" id="svg_49" class="" fill-opacity="1"/><path fill="#000000" d=" M 142.04 83.19 C 143.92 82.57 144.75 85.71 142.81 86.10 C 140.93 86.68 140.06 83.56 142.04 83.19 Z" id="svg_50" class="" fill-opacity="1"/><path fill="#000000" d=" M 109.08 86.39 C 110.42 84.97 112.71 87.25 111.22 88.56 C 109.89 89.97 107.57 87.69 109.08 86.39 Z" id="svg_51" class="" fill-opacity="1"/><path fill="#000000" d=" M 116.26 86.40 C 117.58 84.97 119.90 87.21 118.44 88.54 C 117.13 89.97 114.77 87.72 116.26 86.40 Z" id="svg_52" class="" fill-opacity="1"/><path fill="#000000" d=" M 124.22 86.23 C 125.80 85.71 126.52 88.35 124.90 88.71 C 123.33 89.23 122.60 86.59 124.22 86.23 Z" id="svg_53" class="" fill-opacity="1"/><path fill="#000000" d=" M 131.38 85.89 C 133.22 85.36 134.00 88.50 132.14 88.93 C 130.24 89.53 129.56 86.37 131.38 85.89 Z" id="svg_54" class="" fill-opacity="1"/><path fill="#000000" d=" M 138.10 86.34 C 139.49 85.15 141.35 87.55 139.84 88.59 C 138.44 89.79 136.58 87.39 138.10 86.34 Z" id="svg_55" class="" fill-opacity="1"/><path fill="#000000" d=" M 145.12 86.37 C 146.48 84.97 148.74 87.26 147.25 88.56 C 145.90 89.96 143.60 87.65 145.12 86.37 Z" id="svg_56" class="" fill-opacity="1"/><path fill="#000000" d=" M 112.49 89.14 C 113.82 87.65 116.08 90.01 114.62 91.31 C 113.27 92.77 111.03 90.45 112.49 89.14 Z" id="svg_57" class="" fill-opacity="1"/><path fill="#000000" d=" M 119.93 89.41 C 121.54 88.82 122.11 89.35 121.63 90.99 C 120.02 91.59 119.46 91.06 119.93 89.41 Z" id="svg_58" class="" fill-opacity="1"/><path fill="#000000" d=" M 127.18 89.38 C 128.80 88.86 129.34 89.42 128.82 91.06 C 127.20 91.57 126.66 91.01 127.18 89.38 Z" id="svg_59" class="" fill-opacity="1"/><path fill="#000000" d=" M 134.37 89.37 C 136.00 88.86 136.56 89.41 136.06 91.04 C 134.44 91.55 133.87 90.99 134.37 89.37 Z" id="svg_60" class="" fill-opacity="1"/><path fill="#000000" d=" M 141.34 89.16 C 142.64 87.65 144.94 89.94 143.54 91.29 C 142.24 92.77 139.93 90.50 141.34 89.16 Z" id="svg_61" class="" fill-opacity="1"/><path fill="#000000" d=" M 109.34 92.17 C 110.97 91.66 111.53 92.21 111.00 93.83 C 109.37 94.34 108.81 93.79 109.34 92.17 Z" id="svg_62" class="" fill-opacity="1"/><path fill="#000000" d=" M 116.17 92.18 C 117.15 90.63 119.64 92.37 118.50 93.82 C 117.52 95.37 115.03 93.63 116.17 92.18 Z" id="svg_63" class="" fill-opacity="1"/><path fill="#000000" d=" M 123.43 92.15 C 124.44 90.61 126.88 92.43 125.71 93.85 C 124.70 95.39 122.26 93.57 123.43 92.15 Z" id="svg_64" class="" fill-opacity="1"/><path fill="#000000" d=" M 130.93 92.18 C 132.57 91.67 133.13 92.22 132.60 93.83 C 130.96 94.34 130.40 93.79 130.93 92.18 Z" id="svg_65" class="" fill-opacity="1"/><path fill="#000000" d=" M 138.11 92.19 C 139.73 91.65 140.29 92.19 139.79 93.82 C 138.17 94.36 137.61 93.81 138.11 92.19 Z" id="svg_66" class="" fill-opacity="1"/><path fill="#000000" d=" M 145.34 92.19 C 146.97 91.66 147.54 92.20 147.04 93.83 C 145.40 94.36 144.84 93.82 145.34 92.19 Z" id="svg_67" class="" fill-opacity="1"/><path fill="#000000" d=" M 113.19 94.35 C 115.08 93.73 116.00 96.84 113.99 97.23 C 112.12 97.86 111.22 94.73 113.19 94.35 Z" id="svg_68" class="" fill-opacity="1"/><path fill="#000000" d=" M 142.02 94.35 C 143.91 93.74 144.75 96.88 142.78 97.24 C 140.90 97.83 140.01 94.71 142.02 94.35 Z" id="svg_69" class="" fill-opacity="1"/><path fill="#000000" d=" M 119.95 94.96 C 121.58 94.46 122.13 95.02 121.62 96.64 C 119.99 97.14 119.43 96.57 119.95 94.96 Z" id="svg_70" class="" fill-opacity="1"/><path fill="#000000" d=" M 127.17 94.95 C 128.78 94.42 129.33 94.97 128.83 96.61 C 127.22 97.15 126.67 96.60 127.17 94.95 Z" id="svg_71" class="" fill-opacity="1"/><path fill="#000000" d=" M 134.43 94.95 C 136.08 94.48 136.61 95.05 136.00 96.66 C 134.35 97.12 133.82 96.55 134.43 94.95 Z" id="svg_72" class="" fill-opacity="1"/><path fill="#000000" d=" M 109.06 97.52 C 110.39 95.98 112.62 98.32 111.22 99.67 C 109.93 101.21 107.69 98.84 109.06 97.52 Z" id="svg_73" class="" fill-opacity="1"/><path fill="#000000" d=" M 116.28 97.48 C 117.63 96.00 119.84 98.37 118.40 99.68 C 117.07 101.15 114.85 98.77 116.28 97.48 Z" id="svg_74" class="" fill-opacity="1"/><path fill="#000000" d=" M 124.19 97.18 C 125.92 96.61 126.71 99.50 124.93 99.90 C 123.20 100.47 122.40 97.57 124.19 97.18 Z" id="svg_75" class="" fill-opacity="1"/><path fill="#000000" d=" M 131.38 97.06 C 133.27 96.52 133.97 99.64 132.13 100.10 C 130.27 100.65 129.52 97.48 131.38 97.06 Z" id="svg_76" class="" fill-opacity="1"/><path fill="#000000" d=" M 138.14 97.39 C 139.57 96.24 141.35 98.70 139.80 99.70 C 138.37 100.85 136.59 98.39 138.14 97.39 Z" id="svg_77" class="" fill-opacity="1"/><path fill="#000000" d=" M 145.11 97.51 C 146.44 95.99 148.66 98.36 147.24 99.69 C 145.93 101.20 143.73 98.82 145.11 97.51 Z" id="svg_78" class="" fill-opacity="1"/><path fill="#000000" d=" M 112.53 100.24 C 113.91 98.79 116.04 101.24 114.58 102.49 C 113.19 103.93 111.04 101.50 112.53 100.24 Z" id="svg_79" class="" fill-opacity="1"/><path fill="#000000" d=" M 119.91 100.22 C 121.32 99.04 123.14 101.47 121.62 102.50 C 120.20 103.68 118.39 101.25 119.91 100.22 Z" id="svg_80" class="" fill-opacity="1"/><path fill="#000000" d=" M 127.17 100.20 C 128.61 99.05 130.37 101.52 128.83 102.52 C 127.39 103.67 125.63 101.20 127.17 100.20 Z" id="svg_81" class="" fill-opacity="1"/><path fill="#000000" d=" M 134.39 100.22 C 135.81 99.04 137.60 101.48 136.08 102.51 C 134.66 103.68 132.86 101.24 134.39 100.22 Z" id="svg_82" class="" fill-opacity="1"/><path fill="#000000" d=" M 141.30 100.36 C 142.57 98.84 144.98 101.03 143.53 102.41 C 142.27 103.86 139.82 101.73 141.30 100.36 Z" id="svg_83" class="" fill-opacity="1"/><path fill="#000000" d=" M 109.32 103.26 C 110.95 102.75 111.51 103.30 111.01 104.92 C 109.38 105.43 108.82 104.88 109.32 103.26 Z" id="svg_84" class="" fill-opacity="1"/><path fill="#000000" d=" M 116.19 103.23 C 117.19 101.70 119.64 103.48 118.49 104.91 C 117.48 106.44 115.03 104.66 116.19 103.23 Z" id="svg_85" class="" fill-opacity="1"/><path fill="#000000" d=" M 123.43 103.21 C 124.46 101.68 126.88 103.52 125.70 104.92 C 124.67 106.46 122.25 104.62 123.43 103.21 Z" id="svg_86" class="" fill-opacity="1"/><path fill="#000000" d=" M 130.93 103.29 C 132.57 102.74 133.13 103.28 132.60 104.90 C 130.97 105.44 130.41 104.91 130.93 103.29 Z" id="svg_87" class="" fill-opacity="1"/><path fill="#000000" d=" M 138.12 103.28 C 139.74 102.73 140.30 103.28 139.80 104.92 C 138.17 105.45 137.62 104.91 138.12 103.28 Z" id="svg_88" class="" fill-opacity="1"/><path fill="#000000" d=" M 145.35 103.25 C 146.99 102.76 147.54 103.33 147.02 104.94 C 145.38 105.42 144.82 104.86 145.35 103.25 Z" id="svg_89" class="" fill-opacity="1"/><path fill="#000000" d=" M 112.43 106.09 C 113.47 104.57 115.87 106.43 114.68 107.82 C 113.63 109.35 111.23 107.48 112.43 106.09 Z" id="svg_90" class="" fill-opacity="1"/><path fill="#000000" d=" M 119.92 106.13 C 121.55 105.60 122.12 106.15 121.62 107.77 C 119.99 108.29 119.42 107.74 119.92 106.13 Z" id="svg_91" class="" fill-opacity="1"/><path fill="#000000" d=" M 127.18 106.10 C 128.81 105.61 129.36 106.17 128.82 107.79 C 127.18 108.28 126.64 107.72 127.18 106.10 Z" id="svg_92" class="" fill-opacity="1"/><path fill="#000000" d=" M 134.40 106.13 C 136.03 105.60 136.59 106.15 136.06 107.76 C 134.42 108.29 133.87 107.75 134.40 106.13 Z" id="svg_93" class="" fill-opacity="1"/><path fill="#000000" d=" M 141.32 106.10 C 142.36 104.57 144.77 106.42 143.58 107.82 C 142.54 109.35 140.13 107.49 141.32 106.10 Z" id="svg_94" class="" fill-opacity="1"/><path fill="#000000" d=" M 109.06 108.60 C 110.36 107.07 112.65 109.36 111.24 110.72 C 109.95 112.23 107.66 109.93 109.06 108.60 Z" id="svg_95" class="" fill-opacity="1"/><path fill="#000000" d=" M 116.95 108.25 C 118.66 107.64 119.53 110.51 117.76 110.95 C 116.05 111.56 115.17 108.68 116.95 108.25 Z" id="svg_96" class="" fill-opacity="1"/><path fill="#000000" d=" M 124.22 108.23 C 125.96 107.71 126.69 110.62 124.90 110.97 C 123.16 111.50 122.43 108.58 124.22 108.23 Z" id="svg_97" class="" fill-opacity="1"/><path fill="#000000" d=" M 130.93 108.45 C 132.38 107.31 134.13 109.79 132.58 110.78 C 131.13 111.92 129.38 109.44 130.93 108.45 Z" id="svg_98" class="" fill-opacity="1"/><path fill="#000000" d=" M 138.11 108.48 C 139.52 107.30 141.36 109.72 139.83 110.75 C 138.42 111.93 136.58 109.51 138.11 108.48 Z" id="svg_99" class="" fill-opacity="1"/><path fill="#000000" d=" M 145.10 108.60 C 146.40 107.06 148.68 109.36 147.26 110.72 C 145.97 112.25 143.69 109.94 145.10 108.60 Z" id="svg_100" class="" fill-opacity="1"/><path fill="#000000" d=" M 113.18 111.19 C 114.92 110.63 115.70 113.53 113.92 113.91 C 112.18 114.47 111.40 111.57 113.18 111.19 Z" id="svg_101" class="" fill-opacity="1"/><path fill="#000000" d=" M 120.37 111.09 C 122.26 110.52 123.00 113.64 121.15 114.11 C 119.29 114.68 118.51 111.53 120.37 111.09 Z" id="svg_102" class="" fill-opacity="1"/><path fill="#000000" d=" M 127.13 111.43 C 128.52 110.22 130.38 112.62 128.87 113.67 C 127.48 114.87 125.61 112.47 127.13 111.43 Z" id="svg_103" class="" fill-opacity="1"/><path fill="#000000" d=" M 134.19 111.48 C 135.56 110.00 137.71 112.42 136.27 113.71 C 134.92 115.20 132.76 112.75 134.19 111.48 Z" id="svg_104" class="" fill-opacity="1"/><path fill="#000000" d=" M 142.08 111.19 C 143.81 110.62 144.60 113.51 142.82 113.91 C 141.09 114.48 140.30 111.58 142.08 111.19 Z" id="svg_105" class="" fill-opacity="1"/><path fill="#000000" d=" M 109.33 114.31 C 110.95 113.81 111.51 114.37 111.00 115.99 C 109.37 116.49 108.81 115.92 109.33 114.31 Z" id="svg_106" class="" fill-opacity="1"/><path fill="#000000" d=" M 116.17 114.33 C 117.14 112.77 119.63 114.50 118.51 115.96 C 117.53 117.51 115.04 115.78 116.17 114.33 Z" id="svg_107" class="" fill-opacity="1"/><path fill="#000000" d=" M 123.55 114.04 C 124.88 112.68 127.22 114.93 125.69 116.22 C 124.34 117.62 122.01 115.35 123.55 114.04 Z" id="svg_108" class="" fill-opacity="1"/><path fill="#000000" d=" M 130.98 114.30 C 132.63 113.82 133.16 114.39 132.57 115.99 C 130.91 116.46 130.38 115.90 130.98 114.30 Z" id="svg_109" class="" fill-opacity="1"/><path fill="#000000" d=" M 138.14 114.33 C 139.76 113.81 140.31 114.36 139.78 116.00 C 138.16 116.51 137.61 115.96 138.14 114.33 Z" id="svg_110" class="" fill-opacity="1"/><path fill="#000000" d=" M 145.33 114.32 C 146.95 113.80 147.52 114.35 147.03 115.98 C 145.41 116.49 144.84 115.94 145.33 114.32 Z" id="svg_111" class="" fill-opacity="1"/><path fill="#000000" d=" M 112.47 117.11 C 113.72 115.67 116.19 117.79 114.73 119.16 C 113.46 120.61 111.01 118.50 112.47 117.11 Z" id="svg_112" class="" fill-opacity="1"/><path fill="#000000" d=" M 119.96 117.31 C 121.61 116.80 122.15 117.35 121.59 118.97 C 119.94 119.48 119.40 118.92 119.96 117.31 Z" id="svg_113" class="" fill-opacity="1"/><path fill="#000000" d=" M 127.19 117.31 C 128.81 116.81 129.35 117.37 128.81 119.00 C 127.19 119.50 126.64 118.93 127.19 117.31 Z" id="svg_114" class="" fill-opacity="1"/><path fill="#000000" d=" M 134.38 117.30 C 136.01 116.80 136.57 117.36 136.07 118.97 C 134.43 119.47 133.87 118.92 134.38 117.30 Z" id="svg_115" class="" fill-opacity="1"/><path fill="#000000" d=" M 141.27 117.12 C 142.54 115.64 144.98 117.78 143.53 119.17 C 142.27 120.59 139.79 118.49 141.27 117.12 Z" id="svg_116" class="" fill-opacity="1"/><path fill="#000000" d=" M 109.32 119.54 C 110.75 118.38 112.53 120.84 110.99 121.85 C 109.56 123.00 107.78 120.54 109.32 119.54 Z" id="svg_117" class="" fill-opacity="1"/><path fill="#000000" d=" M 117.04 119.30 C 118.79 118.80 119.46 121.72 117.67 122.05 C 115.92 122.54 115.23 119.61 117.04 119.30 Z" id="svg_118" class="" fill-opacity="1"/><path fill="#000000" d=" M 124.19 119.22 C 126.08 118.61 126.97 121.72 124.98 122.12 C 123.12 122.74 122.24 119.61 124.19 119.22 Z" id="svg_119" class="" fill-opacity="1"/><path fill="#000000" d=" M 130.92 119.54 C 132.35 118.37 134.12 120.83 132.59 121.84 C 131.16 123.01 129.39 120.55 130.92 119.54 Z" id="svg_120" class="" fill-opacity="1"/><path fill="#000000" d="M138.4574602985382,119.53 C139.9074602985382,118.39 141.64746029853822,120.87 140.1074602985382,121.86 C138.6574602985382,123 136.9174602985382,120.52 138.4574602985382,119.53 z" id="svg_121" class="" fill-opacity="1"/><path fill="#000000" d=" M 145.34 119.55 C 146.76 118.38 148.55 120.83 147.03 121.84 C 145.61 123.01 143.82 120.56 145.34 119.55 Z" id="svg_122" class="" fill-opacity="1"/><path fill="#000000" d="M113.48746029853821,122.28 C115.3674602985382,121.64 116.31746029853821,124.74 114.3074602985382,125.15 C112.4474602985382,125.79 111.51746029853821,122.67 113.48746029853821,122.28 z" id="svg_123" class="" fill-opacity="1"/><path fill="#000000" d=" M 142.02 122.28 C 143.89 121.63 144.79 124.76 142.82 125.15 C 140.94 125.77 140.00 122.66 142.02 122.28 Z" id="svg_124" class="" fill-opacity="1"/><path fill="#000000" d=" M 119.93 122.91 C 121.54 122.36 122.11 122.91 121.64 124.55 C 120.03 125.10 119.46 124.55 119.93 122.91 Z" id="svg_125" class="" fill-opacity="1"/><path fill="#000000" d=" M 127.17 122.89 C 128.77 122.34 129.32 122.89 128.84 124.54 C 127.23 125.09 126.67 124.54 127.17 122.89 Z" id="svg_126" class="" fill-opacity="1"/><path fill="#000000" d=" M 134.41 122.89 C 136.04 122.39 136.57 122.95 136.02 124.57 C 134.38 125.08 133.85 124.52 134.41 122.89 Z" id="svg_127" class="" fill-opacity="1"/><path fill="#000000" d=" M 109.30 125.39 C 110.89 124.83 111.47 125.37 111.02 127.01 C 109.42 127.58 108.85 127.03 109.30 125.39 Z" id="svg_128" class="" fill-opacity="1"/><path fill="#000000" d=" M 116.20 125.14 C 117.49 123.70 119.86 125.91 118.43 127.27 C 117.14 128.69 114.76 126.49 116.20 125.14 Z" id="svg_129" class="" fill-opacity="1"/><path fill="#000000" d=" M 123.44 125.34 C 124.48 123.83 126.88 125.69 125.69 127.09 C 124.64 128.60 122.24 126.73 123.44 125.34 Z" id="svg_130" class="" fill-opacity="1"/><path fill="#000000" d=" M 130.96 125.36 C 132.60 124.85 133.14 125.40 132.59 127.02 C 130.95 127.53 130.41 126.98 130.96 125.36 Z" id="svg_131" class="" fill-opacity="1"/><path fill="#000000" d=" M 138.13 125.38 C 139.75 124.85 140.30 125.40 139.78 127.04 C 138.17 127.57 137.62 127.02 138.13 125.38 Z" id="svg_132" class="" fill-opacity="1"/><path fill="#000000" d=" M 145.33 125.37 C 146.95 124.85 147.51 125.40 147.02 127.04 C 145.40 127.55 144.84 126.99 145.33 125.37 Z" id="svg_133" class="" fill-opacity="1"/><path fill="#000000" d=" M 112.48 128.26 C 113.74 126.83 116.19 128.97 114.72 130.33 C 113.43 131.79 111.00 129.64 112.48 128.26 Z" id="svg_134" class="" fill-opacity="1"/><path fill="#000000" d=" M 119.99 128.43 C 121.62 127.94 122.15 128.50 121.59 130.12 C 119.95 130.62 119.42 130.05 119.99 128.43 Z" id="svg_135" class="" fill-opacity="1"/><path fill="#000000" d=" M 127.19 128.44 C 128.80 127.93 129.35 128.50 128.81 130.14 C 127.19 130.64 126.65 130.07 127.19 128.44 Z" id="svg_136" class="" fill-opacity="1"/><path fill="#000000" d=" M 134.39 128.43 C 136.01 127.93 136.56 128.50 136.03 130.13 C 134.41 130.62 133.86 130.05 134.39 128.43 Z" id="svg_137" class="" fill-opacity="1"/><path fill="#000000" d=" M 141.31 128.25 C 142.61 126.81 144.98 129.02 143.51 130.36 C 142.22 131.77 139.80 129.59 141.31 128.25 Z" id="svg_138" class="" fill-opacity="1"/><path fill="#ffffff" d="M-212.3966827392578,185.93611251831055 C-211.8966827392578,192.69611251831054 -211.1566827392578,199.44611251831054 -209.7766827392578,206.08611251831056 C-203.98668273925782,234.84611251831055 -187.7166827392578,261.24611251831055 -164.9066827392578,279.6461125183106 C-144.01668273925782,296.75611251831054 -117.56668273925781,306.56611251831055 -90.66668273925781,308.06611251831055 L-212.3966827392578,308.06611251831055 L-212.3966827392578,185.93611251831055 z" id="svg_139" class=""/><path fill="#ffffff" d="M-150.42147827148438,24.681572265624993 C-128.24147827148437,2.581572265624999 -115.07147827148438,-27.90842773437501 -113.42147827148438,-59.11842773437499 L-113.42147827148438,62.611572265625 L-235.54147827148438,62.611572265625 C-203.7514782714844,61.081572265625 -172.69147827148439,47.481572265625005 -150.42147827148438,24.681572265624993 z" id="svg_140" class=""/><path fill="#000000" d=" M 112.34 155.33 C 114.37 154.24 116.79 154.63 119.01 154.52 C 126.36 154.68 133.72 154.40 141.07 154.63 C 143.88 154.55 146.29 157.12 146.13 159.91 C 146.26 166.92 146.22 173.94 146.14 180.96 C 146.11 190.11 138.04 198.21 128.92 198.44 C 119.56 199.11 110.82 191.29 109.98 182.04 C 109.56 175.70 109.95 169.33 109.78 162.98 C 109.77 160.29 109.59 156.84 112.34 155.33 Z" id="svg_141" class="" fill-opacity="1"/></g></svg>