<svg xmlns="http://www.w3.org/2000/svg" xmlns:xlink="http://www.w3.org/1999/xlink" version="1.1" width="710.0769251084184" height="710.692308369473" enable-background="new 0 0 512 512" xml:space="preserve"><rect id="backgroundrect" width="100%" height="100%" x="0" y="0" fill="none" stroke="none" class=""/>

<g class="currentLayer"><title>Layer 1</title>
	
	
<path fill="" fill-opacity="1" stroke="none" stroke-opacity="1" stroke-width="1" stroke-dasharray="none" stroke-linejoin="miter" stroke-linecap="butt" stroke-dashoffset="" fill-rule="nonzero" opacity="1" marker-start="" marker-mid="" marker-end="" d="M-370,-83.5 C-370,-85.43370165745857 -370,-87 -370,-87 C-370,-87 -370,-85.43370165745857 -370,-83.5 C-370,-81.56629834254143 -370,-80 -370,-80 C-370,-80 -370,-81.56629834254143 -370,-83.5 Z" id="svg_10"/><path fill="#ffffff" fill-opacity="1" stroke="none" stroke-opacity="1" stroke-width="1" stroke-dasharray="none" stroke-linejoin="miter" stroke-linecap="butt" stroke-dashoffset="" fill-rule="nonzero" opacity="1" marker-start="" marker-mid="" marker-end="" d="M-3.615379807728445,353.26921621798954 C-3.615379807728445,157.2428715635339 155.94051310169527,-1.5384676065752205 352.92309694049004,-1.5384676065752205 C549.9056807792848,-1.5384676065752205 709.4615736887085,157.2428715635339 709.4615736887085,353.26921621798954 C709.4615736887085,549.2955608724453 549.9056807792848,708.0769000425546 352.92309694049004,708.0769000425546 C155.94051310169527,708.0769000425546 -3.615379807728445,549.2955608724453 -3.615379807728445,353.26921621798954 z" id="svg_12" class=""/><g class="" id="svg_1"><g id="svg_16" class="">
		<polygon points="159.7091920375824,69.23077392578125 198.49682021141052,69.23077392578125 223.51528334617615,146.95277404785156 225.9359986782074,146.95277404785156 249.72435927391052,69.23077392578125 288.8882234096527,69.23077392578125 244.06879591941833,182.99603271484375 244.06879591941833,263.667236328125 205.55092787742615,263.667236328125 205.55092787742615,186.63111877441406 " id="svg_3"/>
		<path d="M291.6492095329527,153.04091182679696 c0,-11.138430694781782 4.601250653798626,-19.98493342134065 13.838403660778974,-26.554349526371837 c9.203738868289506,-6.584257451726437 21.609047247438898,-9.8822167066485 37.11815784276013,-9.8822167066485 c14.144081151765597,0 25.768488734103013,3.472875126687458 34.83485836555237,10.422865764832446 c8.997066232683164,6.934089195257224 13.531488609100098,15.88236115629777 13.531488609100098,26.817253382116196 v74.100723856976 c0,12.262132658850376 -4.4304672782676375,21.868724355444318 -13.257987696112071,28.862178937482522 c-8.931475515993728,6.977553139150443 -21.099172242230438,10.482231151613428 -36.675111114933365,10.482231151613428 c-14.928694630654336,0 -26.92560798136006,-3.6212885936399135 -35.925149335427726,-10.801320105561206 c-8.930237955301475,-7.212894493889339 -13.462185210333905,-16.920195328772447 -13.462185210333905,-29.109181350339107 L291.6492095329527,153.04091182679696 L291.6492095329527,153.04091182679696 zM326.85781122756555,230.09082329135677 c0,3.9265962970849664 1.2610743454063473,6.9478704457599525 3.6805054987620007,9.123187832805943 c2.4206687140479053,2.1604760403507446 5.8982142592803255,3.225872713830873 10.430161514312754,3.225872713830873 c4.6371399138739795,0 8.282993713252878,-1.1078005211808286 11.043991617670505,-3.2841780044193367 c2.728821326419034,-2.219841427131727 4.092613209282425,-5.240055479614196 4.092613209282425,-9.065942638409995 V151.94477236373385 c0,-3.1368246336593995 -1.3996811429387428,-5.663033860428695 -4.1940931860472155,-7.605130085120828 c-2.794412043108472,-1.926194781804369 -6.441503403179628,-2.8760409703000844 -10.942511640905714,-2.8760409703000844 c-4.191618064662707,0 -7.5652085117458325,0.9498461884957167 -10.19007474001557,2.8760409703000844 c-2.590214528886639,1.9420962246921327 -3.919354712366931,4.4661852590763935 -3.919354712366931,7.605130085120828 V230.09082329135677 L326.85781122756555,230.09082329135677 z" id="svg_4"/>
		<path d="M516.3345410150424,120.22351399503151 v143.44479609812578 h-34.22102826219462 v-15.838897212404556 c-6.238543449650048,5.824168481691362 -12.814940968285304,10.307315279848034 -19.66855208198536,13.34237067902575 c-6.8164842929324445,3.0509568420654785 -13.430008632335314,4.57113478213563 -19.83933545751635,4.57113478213563 c-7.9736035401894965,0 -13.871817799469822,-2.146694789848017 -17.89141492790929,-6.409341579961042 c-3.988658111133128,-4.277488136808271 -5.999694236045116,-10.67092827388155 -5.999694236045116,-19.22696464369061 V120.22351399503151 h34.15172486342842 v109.96907853080693 c0,3.401848681788784 0.7858510395809951,5.85385117508185 2.216471199826073,7.371908922766967 c1.3972060215542361,1.5201779400701518 3.7485713368359432,2.29192796822292 6.953853529772586,2.29192796822292 c2.4874969914295955,0 5.692779184366239,-1.020872633394391 9.542830497966975,-3.021274148674987 c3.816637174909888,-2.0141827657833242 7.362248558216252,-4.585976128830875 10.531641491077544,-7.737642109185519 V120.22351399503151 H516.3345410150424 z" id="svg_5"/>
	</g><g id="svg_18" class="">
		<path d="M411.6938342422373,440.48175404315776 c-2.18058193975072,0 -4.326512180118342,0.3943557836165262 -6.441503403179628,1.269995238636012 c-2.112516101676776,0.848076954014032 -4.191618064662707,2.1763774832385083 -6.2694824669563864,3.9721804333632185 v81.13658228671491 c2.4528452920464976,2.101110653569763 4.874751566786656,3.692315038538591 7.22487932137611,4.598697283141085 c2.320426297975369,0.9180433027201906 4.739857451331021,1.416288513203433 7.328834419525408,1.416288513203433 c3.7151571981450973,0 6.443978524564133,-0.9201634951052254 8.181513736488089,-2.7891130825136456 c1.73506009053945,-1.8254856435152025 2.6558052455760772,-4.7746732510989975 2.6558052455760772,-8.963113307735796 v-67.24084139519499 c0,-4.39515881417772 -1.0581143918767693,-7.737642109185519 -3.202807071552137,-10.013668634520675 C418.95460282368873,441.6202973539215 415.782734769443,440.48175404315776 411.6938342422373,440.48175404315776 z" id="svg_7"/>
		<path d="M516.4706726911901,440.94925646405784 c-4.838862306711304,0 -8.31517029125147,1.1523245612665654 -10.430161514312754,3.591605900249425 c-2.112516101676776,2.2749664291426392 -3.1347412334781923,6.217464169115369 -3.1347412334781923,11.664238406270483 v13.15261346056511 h26.858779703978367 v-13.15261346056511 c0,-5.4457141409625995 -1.0902909698753611,-9.386091688550293 -3.205282192936644,-11.664238406270483 C524.514817190838,442.10158102532444 521.073160905681,440.94925646405784 516.4706726911901,440.94925646405784 z" id="svg_8"/>
		<path d="M585.7641709718499,339.56377680406547 c-24.94922355583117,-21.004745958542525 -235.2491495511658,-21.28461135336715 -235.2491495511658,-21.268709910479384 c0,-0.015901442887763177 -210.26774941733603,0.2639639519368679 -235.2850388112412,21.268709910479384 c-25.018526954597373,21.036548844318048 -25.08659279267131,124.89099253668381 -25.08659279267131,125.48888678926373 v0.1908173146531577 c0,0.5968341563873766 0.06930339876619802,104.27530188079524 25.08659279267131,125.3129108213058 C140.24479688196334,611.547356437328 350.515021420684,612.000017511533 350.515021420684,612.000017511533 s210.29992599533466,-0.4526610742049908 235.2491495511658,-21.4446858784373 c25.121244492054412,-21.109695481601758 25.32420444558399,-125.50266803976646 25.32420444558399,-125.50266803976646 C611.0883754174338,464.45264914836423 610.8173496258304,360.6003256483835 585.7641709718499,339.56377680406547 zM245.29389868321206,400.7461684590228 H209.879861913685 v150.87289011909618 H175.62418195210736 v-150.87289011909618 H140.2101451825802 V375.1109223315636 h105.0825159399395 L245.29389868321206,400.7461684590228 L245.29389868321206,400.7461684590228 zM345.43359721829097,551.6201186743115 h-30.369739387901635 v-14.320839464719436 c-5.656889924290886,5.313202116897906 -11.452386646114173,9.327786397961827 -17.55232329823182,12.073435536582254 c-6.06776007411906,2.803954429208892 -11.931322634016285,4.14497611274358 -17.65751595707337,4.14497611274358 c-7.056571067229633,0 -12.271651824386007,-1.8975721846063953 -15.88285392438181,-5.808267038803598 c-3.510959683923266,-3.9000938922720283 -5.31779829461342,-9.663836890989888 -5.31779829461342,-17.446003040261147 V421.38730142353177 h30.37097694859388 v99.88332335519507 c0,3.094420785958697 0.6472442420485982,5.313202116897906 1.876142009456352,6.684966590015602 c1.329140183480292,1.4014471665081871 3.4082421464662236,2.0735481525643062 6.237305888957793,2.0735481525643062 c2.216471199826073,0 5.0789490810084885,-0.9201634951052254 8.487191227474712,-2.744589042427909 c3.4428938458493215,-1.8403269902104489 6.544220940636668,-4.1470963051286125 9.440112960509932,-6.963771888647716 v-98.93135697431431 h30.369739387901635 L345.43359721829097,551.6201186743115 L345.43359721829097,551.6201186743115 zM455.663128077313,524.7148773082163 c0,9.210115720592382 -2.388492136049314,16.276716939914298 -7.156813483302167,21.197683465580713 c-4.737382329946514,4.932627583784111 -11.655346599643748,7.354947383686686 -20.65365039301917,7.354947383686686 c-5.9650425366620174,0 -11.249426692584588,-0.9169832065276726 -15.885329045766317,-2.815615487326584 c-4.633427231797218,-1.896512088413878 -9.032955492758518,-4.817077098799699 -12.98448678312404,-8.815759936975857 v9.983985941130184 h-30.708831017579108 V375.1109223315636 h30.708831017579108 v56.83069678467276 c4.123552226588765,-3.9424977399727297 8.452539528091613,-6.993454582038208 13.020376043199395,-9.035199848826988 c4.633427231797218,-2.0724880563717893 9.306456405746548,-3.0954808821512145 14.006711914925457,-3.0954808821512145 c9.646785596116269,0 16.97562001564168,2.7742717358184006 22.01991739726707,8.29313251406471 c5.112363219699335,5.561264625947011 7.6357494712042815,13.692202422556539 7.6357494712042815,24.349349445935356 v72.26145696295808 H455.663128077313 zM561.0203824909329,489.6214529511157 h-58.11708766891804 v24.539106664395998 c0,6.862002654166032 0.9912861144950783,11.605933115682019 2.9651954186394582,14.27737552082622 c2.0444502636028323,2.641759711753708 5.452692410069053,3.9435578361652452 10.294029838164867,3.9435578361652452 c5.041822260240882,0 8.554019504856404,-1.1258221564536266 10.56505562976839,-3.3732260845908097 c1.9776219862211417,-2.248464024329701 3.033261256713404,-7.182151704306329 3.033261256713404,-14.847707272400656 v-5.940779062868288 h31.25583284355516 v6.68708678240064 c0,13.358272121913515 -3.7856981576035507,23.415404700327407 -11.452386646114173,30.203200621017213 c-7.5652085117458325,6.7157093795986125 -18.952004441170565,10.057132578413896 -34.08365902535448,10.057132578413896 c-13.600792007866298,0 -24.33786857385793,-3.5481419563562047 -32.143163859900945,-10.730293660662532 c-7.8077704074275225,-7.136567568028075 -11.76177681917755,-16.978500619360908 -11.76177681917755,-29.53109963496109 v-58.48126655642256 c0,-11.255041275958712 4.32898730150285,-20.510741132829345 12.918896066434602,-27.60596494934924 c8.587433643547248,-7.109005067022618 19.63142526121775,-10.656086927186305 33.26686896846715,-10.656086927186305 c13.905231938160668,0 24.608894365461452,3.297959254922065 32.0726229004425,9.8822167066485 c7.463728534981045,6.5683560088386725 11.181360854510647,16.028654430865192 11.181360854510647,28.379835169887045 v33.19585217249423 H561.0203824909329 z" id="svg_9"/>
	</g></g></g></svg>